<svg width="163" height="157" viewBox="0 0 163 157" fill="none" xmlns="http://www.w3.org/2000/svg">
<ellipse cx="81.5" cy="78.5" rx="81.5" ry="78.5" fill="black"/>
<path d="M122.641 88.8125C122.641 92.1562 122 95.2969 120.719 98.2344C119.469 101.172 117.75 103.734 115.562 105.922C113.375 108.109 110.812 109.844 107.875 111.125C104.938 112.375 101.797 113 98.4531 113C96.4531 113 94.5156 112.781 92.6406 112.344C90.7969 111.875 89.0469 111.234 87.3906 110.422C85.7344 109.578 84.1875 108.562 82.75 107.375C81.3438 106.188 80.0781 104.859 78.9531 103.391C76.7344 106.328 73.9531 108.672 70.6094 110.422C67.2656 112.141 63.5938 113 59.5938 113C56.25 113 53.1094 112.375 50.1719 111.125C47.2344 109.844 44.6719 108.109 42.4844 105.922C40.2969 103.734 38.5625 101.172 37.2812 98.2344C36.0312 95.2969 35.4062 92.1562 35.4062 88.8125V45.7812H44.9688V88.8125C44.9688 90.8438 45.3438 92.75 46.0938 94.5312C46.875 96.2812 47.9219 97.8125 49.2344 99.125C50.5781 100.438 52.125 101.484 53.875 102.266C55.6562 103.016 57.5625 103.391 59.5938 103.391C61.5625 103.391 63.4062 103.031 65.125 102.312C66.875 101.594 68.3906 100.609 69.6719 99.3594C70.9844 98.1094 72.0312 96.6406 72.8125 94.9531C73.625 93.2344 74.0781 91.4062 74.1719 89.4688V88.8125V45.7812H83.875V88.8125C83.875 90.8438 84.25 92.75 85 94.5312C85.7812 96.2812 86.8281 97.8125 88.1406 99.125C89.4531 100.438 90.9844 101.484 92.7344 102.266C94.5156 103.016 96.4219 103.391 98.4531 103.391C100.453 103.391 102.344 103.016 104.125 102.266C105.906 101.484 107.453 100.438 108.766 99.125C110.109 97.8125 111.156 96.2812 111.906 94.5312C112.688 92.75 113.078 90.8438 113.078 88.8125V45.7812H122.641V88.8125Z" fill="white"/>
</svg>
